<svg viewBox="0 0 409 109" xmlns="http://www.w3.org/2000/svg" fill-rule="evenodd" clip-rule="evenodd" stroke-linejoin="round" stroke-miterlimit="2"><path d="M39.891 62.83c18.071-20.55 39.584-33.05 67.161-31.34C125.238-6.17 191.548-8.7 220.939 21.45c36.126-7.67 64.653 1.98 85.264 29.67 0 0 102.695 3.99 102.695 35.14 0 19.27-64.413 14.49-64.413 14.49-36.836 11.44-74.746 8.38-112.982.91-16.645 2.13-33.289 1.46-49.933-.11-37.017 6.76-74.863 9.63-116.149-3.65 0 0-64.545 5.67-64.545-15.64 0-11.96 39.015-19.43 39.015-19.43z" fill="#fffdfc"/><path d="M56.272 79.3c9.147 3.42 19.919 5.14 31.466 6.05 45.143-21.09 88.732-26.83 129.449-4.21 23.308-7.64 46.744-6.93 70.408 8.62 0-3.35 100.542-8.8 121.303-3.5 0 19.27-64.413 14.49-64.413 14.49-36.836 11.44-74.746 8.38-112.982.91-16.645 2.13-33.289 1.46-49.933-.11-37.017 6.76-74.863 9.63-116.149-3.65 0 0-64.545 5.67-64.545-15.64 14.282 5.55 55.396-2.96 55.396-2.96z" fill="#d3f1fb"/></svg>