<svg viewBox="0 0 1116 273" xmlns="http://www.w3.org/2000/svg" fill-rule="evenodd" clip-rule="evenodd" stroke-linejoin="round" stroke-miterlimit="2"><path d="M411.64 94.11c-27.52-7.05-51.12-.67-70.15 21.35-50.95-8.83-85.77-1.13-101.99 25.62-52.13-.52-87.53 14.23-104.4 45.9C104.48 167.3-10.49 206.92 1.82 234.9c6.81 15.48 102.18 20.61 116.37 14.66 52.31 16.73 113.57 16.37 182.16 1.95 18.27 6.94 66.24 12.26 165.52 14.81 49.99 9.41 103.44 9.13 160.99-2.64 51.21-3.09 117.05-32.84 178.35-18.11 28.18 6.77 86.83-4.8 86.83-4.8 13.95 8.44 37.99 12.82 91.09 15.49 27.2.62 52.48-3.17 75.86-11.3 6.13 2.37 50.51 3.34 55.47-8.84 6.55-16.13-29.37-29.18-38.94-21.31-21.1-24.73-39.56-28.69-56.8-23.14-13.77-31.23-39.11-54.56-82.4-41.23-30.39-38.43-91.77-49.14-133.72-17.09-6.63-9.02-13.05-12.14-24.13-7.83C784.45 48.53 664.66 1.895 591.45.306 518.52-1.277 404.94 47.19 411.64 94.11z" fill="#fff"/><path d="M431.76 198.44c-29.59.57-65.74 2.19-96.38 16.84-31.1-9.83-58.04-5.22-75.76 4.69-35.12-7.35-119.38 9.83-126.53 15.74 0 0-12.96-15.08-32.73-9.98-38.73 9.98-88.37 14.24-98.54 9.17-2.42 5.42 100.3 24.83 116.37 14.66 52.31 16.73 113.57 16.37 182.16 1.95 18.27 6.94 66.24 12.26 165.52 14.81 49.99 9.41 103.44 9.13 160.99-2.64 51.21-3.09 117.05-32.84 178.35-18.11 28.18 6.77 86.83-4.8 86.83-4.8 13.95 8.44 37.99 12.82 91.09 15.49 27.2.62 52.48-3.17 75.86-11.3 6.13 2.37 59.59 3.65 55.47-8.84-2.53-7.67-93.07-17.48-87.97-11.51-45.34-22.05-82.14-24.8-111.28-10.25 8.06-7.62-130.1-61.47-180.53-21.41-62-64.33-226.29-55.1-302.92 5.49z" fill="#a5dcf3" fill-opacity=".25"/></svg>