<svg viewBox="0 0 1441 311" xmlns="http://www.w3.org/2000/svg" fill-rule="evenodd" clip-rule="evenodd" stroke-linejoin="round" stroke-miterlimit="2"><path d="M962.43 100.46c42.14-2.8 72.72 13.72 95.28 43.6 98.62-34.17 204.39-23.22 236.2 27.97 27.05 1.1 46.3 7.51 52.67 22.69 62.05-.35 94.24 11.86 94.3 30.26.06 19.12-44.18 32.03-106.11 43.24-40.24 18.08-108.94 22.28-230.63 10.43-35.39 11.86-68.89 17.28-97.43 5.92-49.44 22.02-103.52 26.63-165.25 2.48-32.76 21.53-79.71 21.55-130.26 16.12-56.64 11.71-112.73 11.27-167.51-17.24-78.25 7.46-154.79-3.62-233.05-38.75-53.95 7.34-109.3 6.23-167.19-10.36C73.02 246.15 2.08 239.47.41 226.8c-2.72-20.59 58.2-39.76 112.03-31.4 24.95-19.13 56.45-34.09 84.81-26.64 15.09-8.53 30.38-14.75 46.51-11.29 37.14-35.78 73.05-33.03 108.42-13.46 48.04-23.54 88.97-24.47 121.38-2.89 38.27-37.08 77.49-44.05 113.27-28.84 52.81-155.54 320.59-138.43 375.6-11.82z" fill="#fff"/><path d="M949.83 229.58c14.21 1.33 53.28-13.81 109.97 10.75 98.62-34.17 136.09-21.3 184.84-10.71 35.76 7.77 80.06 7.66 114.24-1.14 26.52-6.84 71.78-8.17 82-3.5.06 19.12-44.18 32.03-106.11 43.24-40.24 18.08-108.94 22.28-230.63 10.43-35.39 11.86-68.89 17.28-97.43 5.92-49.44 22.02-103.52 26.63-165.25 2.48-32.76 21.53-79.71 21.55-130.26 16.12-56.64 11.71-112.73 11.27-167.51-17.24-78.25 7.46-154.79-3.62-233.05-38.75-53.95 7.34-109.3 6.23-167.19-10.36C73.02 246.15 2.08 239.47.41 226.8c10.34-15.27 27.84 9.85 112.03-6.83 33.58-6.66 77.7 3.91 108.44 13.69 29.19-11.71 114.56-23.06 138.66-.95 43.67-10.63 64.31-14.65 99.61-1.63 60.67-34.11 104.72-19.51 128.24-5.92 55.68-64.8 258.26-75.61 362.44 4.42z" fill="#a6dcf3" fill-opacity=".27"/></svg>