<svg viewBox="0 0 374 106" xmlns="http://www.w3.org/2000/svg" fill-rule="evenodd" clip-rule="evenodd" stroke-linejoin="round" stroke-miterlimit="2"><path d="M315.384 56.86c-15.037-39.84-39.336-49.21-68.797-41.59-40.548-28.44-86.837-12.55-97.413 16-18.216-1.32-33.286 5.3-45.211 19.87C89 49.02 76.522 53.55 65.301 61.45c-21.103-.29-38.682 4.54-54.529 11.88C-9.464 83.5.33 91.07 37.463 96.29c35.336 12.65 67.703 12.4 97.81 2.33 8.458 2.23 17.252 3.21 27.095.31 40.697 10.13 86.353 5.26 133.462-4.01 47.115 7.35 77.222 4.96 77.222-5.64 0-20.31-24.096-24.71-57.668-32.42z" fill="#fff"/><path d="M312.567 84.65c-15.51-12.71-33.521-17.13-54.199-12.7-41.448-25.78-75.567-20.1-104.614 7.33-19.304 2.98-36.03 3.31-50.07.88-24.466-2.52-37.282 1.27-42.534 6.38 0 0-34.968-1.7-50.378-13.21C-9.464 83.5.33 91.07 37.463 96.29c35.336 12.65 67.703 12.4 97.81 2.33 8.458 2.23 17.252 3.21 27.095.31 40.697 10.13 86.353 5.26 133.462-4.01 47.115 7.35 77.222 4.96 77.222-5.64-15.486-15.6-60.485-4.63-60.485-4.63z" fill="#d4f1ff"/></svg>