<svg viewBox="0 0 478 126" xmlns="http://www.w3.org/2000/svg" fill-rule="evenodd" clip-rule="evenodd" stroke-linejoin="round" stroke-miterlimit="2"><path d="M.57 92.23c0-13.42 67.18-27.19 84.13-18.84 20.14-22.16 45.86-33.73 79.17-30.9 36.97-66.28 121.52-45.82 155.15.91 26.46-4.81 53.97-2.01 84.49 22.94 37.78 2.07 73.58 22.46 73.58 41.04 0 7.97-36.71 17.88-56.96 15.41-38.01 3.2-76.01.04-114.01-6.91-52.4 12.73-104.29 13.2-155.69 2.07C72.85 132.11.57 120.04.57 92.23z" fill="#fdffff"/><path d="M3.08 100.78c-1.64-2.66 82.03-8.53 98.98-.17 25.82-20.04 54.91-13.1 82.48-12.41 40.1-42.55 125.64-26.35 157.83 9.4 26.47-4.81 52.88-3.45 72.97 10.28 32.22-3.62 35.25-14.12 61.75-.5 0 7.97-36.71 17.88-56.96 15.41-38.01 3.2-76.01.04-114.01-6.91-52.4 12.73-104.29 13.2-155.69 2.07-69.1 12.62-133.98 4.42-147.35-17.17z" fill="#d7eefd"/></svg>