<svg viewBox="0 0 371 106" xmlns="http://www.w3.org/2000/svg" fill-rule="evenodd" clip-rule="evenodd" stroke-linejoin="round" stroke-miterlimit="2"><path d="M9.39 72.8c14.4-6 31.53-10.6 54.39-12.3 8.97-6.08 22.16-9.36 38.04-10.86 11.37-12.99 26.51-19.05 44.78-19.37 16.28-30.6 62.87-40.84 97.43-16.78 28.64-5.92 53.24 2.29 68.64 42.75 0 0 58.23 13.57 58.23 28.51 0 21.85-70.98 10.3-70.98 10.3-51.69 11.17-105.3 12.51-161.12 2.46-34.44 11.33-67.52 10.85-99.24-1.43C-2.06 89.09-6.65 81.2 9.39 72.8z" fill="#fdfefe"/><path d="M9.39 72.8c9.93 11.41 44.54 10.94 44.54 10.94 21.05-6.12 44.17-7.8 71.48-.46 6.69-2.58 13.39-3.73 20.08-2.62 39.39-34.14 75.36-34.18 108.68-7.9 17.66-7.02 35.66-3.8 53.99 9.44 18.45-6.91 52.32 3.66 62.74 2.55 0 21.85-70.98 10.3-70.98 10.3-51.69 11.17-105.3 12.51-161.12 2.46-34.44 11.33-67.52 10.85-99.24-1.43C-2.06 89.09-6.65 81.2 9.39 72.8z" fill="#d6effd"/></svg>