<svg viewBox="0 0 248 71" xmlns="http://www.w3.org/2000/svg" fill-rule="evenodd" clip-rule="evenodd" stroke-linejoin="round" stroke-miterlimit="2"><path d="M247.754 41.78c0-10.13-25.941-19.53-57.424-21.13-33.033-25.63-60.869-25.39-85.11-7.26-29.03.75-49.442 7.13-55.622 22.81C31.061 37.16.882 40.73.882 56.6c0 10.18 37.391 14.13 84.124 10.79 32.225 4.08 64.646 5.73 97.894-2.77 39.615-6.22 64.854-9.75 64.854-22.84z" fill="#fff"/><path d="M247.754 41.78c-15.922 10.22-57.679.06-68.113 9.46-37.45-22.05-78.237-10.59-97.847 3.78-30.003-7.39-45.543.32-45.543.32S13.449 57.78.882 56.6c0 10.18 37.391 14.13 84.124 10.79 32.225 4.08 64.646 5.73 97.894-2.77 39.615-6.22 64.854-9.75 64.854-22.84z" fill="#d4f1ff"/></svg>