<svg viewBox="0 0 1901 458" xmlns="http://www.w3.org/2000/svg" fill-rule="evenodd" clip-rule="evenodd" stroke-linejoin="round" stroke-miterlimit="2"><path d="M668.68 253.07c-169.57-74-317.71-58.91-346.399 60.5-12.439 1.52-23.509 8.38-33.446 19.65-57.452-21.24-102.802-17.54-137.041 7.19-33.766 2.83-54.666 17.92-64.471 40.51-20.133-3.12-30.276 2.11-39.259 10.64-17.262.91-32.867 4.99-44.157 15.73-14.035 16.86 14.59 21.27 54.208 20.29 76.049 13.33 150.638 26.49 237.455 16.62 60.28 7.3 127.53 6.6 197.82 2.4 76.75 11.89 134.96 20.92 236.16-8.71 204.17 17.06 411.44 32.02 583.68-.5 95.65 8.05 189.53 3.27 280.62-21.77 144.16-3.08 322.19 1.53 306.11-37.91-25.91-23.12-55.45-36.13-89.05-37.83-42.16-58.35-94.89-72.11-153.49-61.15-29.85-88.26-90.86-135.33-200.96-98.52-22.92-13.56-43.99-10.4-62.58-1.66-16.51-14.81-35.6-19.53-58.23-17.1-47.54-224.74-475.69-207.39-507.12 9.61-38.74 12.34-55.83 33.28-61.54 58.73-39.3-11.95-72.96-4.82-98.31 23.28z" fill="#fff"/><path d="M677.4 382.39c-99.93-54.26-242.82-52.35-299.47 21.1-102.885-35.77-183.549-29.41-244.678 13.97-35.604-13.9-68.737-16.93-97.435-.49 0 0-20.005-.55-31.91-9.68-14.035 16.86 14.59 21.27 54.208 20.29 76.049 13.33 150.638 26.49 237.455 16.62 60.28 7.3 127.53 6.6 197.82 2.4 76.75 11.89 134.96 20.92 236.16-8.71 204.17 17.06 411.44 32.02 583.68-.5 95.65 8.05 189.53 3.27 280.62-21.77 144.16-3.08 322.19 1.53 306.11-37.91-15.68 12.16-34.13 1.47-34.13 1.47-39.34-6.85-77.92-6.2-116.07-1.45-63.66-10.04-124.84-7.07-183.74 7.87-65.33-37-129.77-41.11-193.26-10.63-24.43-14.31-51.72-17.45-82.54-6.88-113.95-127.46-293.47-77.63-486.75 9.37-42.55-10.09-84.67-10.65-126.07 4.93z" fill="#d6effd"/></svg>