<svg viewBox="0 0 249 73" xmlns="http://www.w3.org/2000/svg" fill-rule="evenodd" clip-rule="evenodd" stroke-linejoin="round" stroke-miterlimit="2"><path d="M.7 53.5c0-16.56 47.22-18.08 47.22-18.08 13.29-17.04 32.96-23.43 57.2-22.16 28.49-20.51 57.61-14.87 87.17 8.65 0 0 55.88 1.3 55.88 19.97 0 18.66-60.82 20.99-60.82 20.99-30.9 11.14-61.62 13.24-92.15 5.25-10.41 2.31-20.59 3.24-30.29 1.46-10.41 3.58-20.82 3.87-31.23-.34 0 0-32.98.82-32.98-15.74z" fill="#fefefc"/><path d="M.7 53.5c11.58 7.28 20.32 5.22 20.32 5.22 18.02-6.47 36.92-7.7 56.66-3.92 29.62-15.9 61.77-21.06 99.4-2.95 11.65-13.23 49.59 4.65 71.09-9.97 3.1 18.4-60.82 20.99-60.82 20.99-30.9 11.14-61.62 13.24-92.15 5.25-10.41 2.31-20.59 3.24-30.29 1.46-10.41 3.58-20.82 3.87-31.23-.34 0 0-32.98.82-32.98-15.74z" fill="#d5f0ff"/></svg>