<svg viewBox="0 0 475 124" xmlns="http://www.w3.org/2000/svg" fill-rule="evenodd" clip-rule="evenodd" stroke-linejoin="round" stroke-miterlimit="2"><path d="M474.794 104.34c0-23.6-45.973-38.02-72.659-36.61-30.302-25.41-57.137-28.06-82.825-23.18-58.301-60.57-135.189-55.49-156.598-1.94-30.629-1.67-57.108 6.87-77.95 29.29 0 0-84.461-7.12-84.461 25.15 0 26.61 82.353 23.88 82.353 23.88 15.396.61 41.805-.54 76.265-2.97 42.621 7.07 92.255 7.86 152.399-.75 32.742 3.17 65.483 5.4 98.225 5.63 26.907 3.97 65.251-8.02 65.251-18.5z" fill="#fff"/><path d="M474.794 104.34c-14.98-10.72-31.965 2.28-58.651 3.69-44.928-22-53.912-15.11-76.179-11.03-39.993-42.86-113.734-44.88-154.185-9.76-18.41-2.67-59.956-9.17-93.48 14.29-17.583-11.56-65.242-2.5-91.998-4.48 0 26.61 82.353 23.88 82.353 23.88 15.396.61 41.805-.54 76.265-2.97 42.621 7.07 92.255 7.86 152.399-.75 32.742 3.17 65.483 5.4 98.225 5.63 26.907 3.97 65.251-8.02 65.251-18.5z" fill="#d4f1ff"/></svg>