<svg viewBox="0 0 411 107" xmlns="http://www.w3.org/2000/svg" fill-rule="evenodd" clip-rule="evenodd" stroke-linejoin="round" stroke-miterlimit="2"><path d="M410.68 85.84c.08-23.57-95.22-42.62-101.98-33.77-.26-15.11-58.23-41.9-85.58-31-.93.37-18.29-19.54-51.68-20.06C119.67.2 108.61 26.9 110.3 27.32c-24.09-3.21-66.35 26.69-70.1 33.67-2.7-.56-37.93 5.33-39.61 20.77-1.69 15.49 57.19 18.42 64.5 12.42 50.47 19.08 108.42 2.83 153.64 5.6 38.06 4.28 73.87 11.83 120.99 2.94 9.23-1.08 70.92-3.73 70.96-16.88z" fill="#fff"/><path d="M410.68 85.84c-29.96-8.27-119.05 2-119.05 2-41.92-21.4-60.08-14.9-75.62-6.26-30.13-28.43-71.33-18.12-131.02 1.74.17 1.81-25.38-4.46-38.54-6.26-13.94-1.9-7.51 3.67-45.86 4.7-1.69 15.49 57.19 18.42 64.5 12.42 50.47 19.08 108.42 2.83 153.64 5.6 38.06 4.28 73.87 11.83 120.99 2.94 9.23-1.08 70.92-3.73 70.96-16.88z" fill="#d4f1ff"/></svg>